<svg width="584" height="299" viewBox="0 0 584 299" fill="none" xmlns="http://www.w3.org/2000/svg">
<path d="M168.017 268.611L168.55 256.608C174.102 253.634 180.295 252.063 186.591 252.031C177.926 259.131 179.009 272.818 173.134 282.366C171.28 285.33 168.783 287.837 165.83 289.703C162.876 291.568 159.542 292.743 156.074 293.141L148.823 297.591C147.828 292.032 148.048 286.322 149.466 280.856C150.885 275.39 153.469 270.297 157.04 265.928C159.068 263.497 161.393 261.332 163.961 259.483C165.697 264.073 168.017 268.611 168.017 268.611Z" fill="#F2F2F2"/>
<path d="M477.406 19.5572H139.864C139.723 19.5541 139.588 19.4955 139.489 19.3939C139.389 19.2924 139.334 19.156 139.334 19.0139C139.334 18.8719 139.389 18.7355 139.489 18.634C139.588 18.5324 139.723 18.4738 139.864 18.4707H477.406C477.548 18.4738 477.683 18.5324 477.782 18.634C477.881 18.7355 477.937 18.8719 477.937 19.0139C477.937 19.156 477.881 19.2924 477.782 19.3939C477.683 19.4955 477.548 19.5541 477.406 19.5572Z" fill="#CACACA"/>
<path d="M151.799 11.9514C155.02 11.9514 157.631 9.27596 157.631 5.97568C157.631 2.6754 155.02 0 151.799 0C148.578 0 145.967 2.6754 145.967 5.97568C145.967 9.27596 148.578 11.9514 151.799 11.9514Z" fill="#676294"/>
<path d="M171.945 11.9514C175.166 11.9514 177.777 9.27596 177.777 5.97568C177.777 2.6754 175.166 0 171.945 0C168.724 0 166.113 2.6754 166.113 5.97568C166.113 9.27596 168.724 11.9514 171.945 11.9514Z" fill="#676294"/>
<path d="M192.092 11.9514C195.313 11.9514 197.924 9.27596 197.924 5.97568C197.924 2.6754 195.313 0 192.092 0C188.871 0 186.26 2.6754 186.26 5.97568C186.26 9.27596 188.871 11.9514 192.092 11.9514Z" fill="#676294"/>
<path d="M465.333 1.48047H451.021C450.738 1.48611 450.467 1.60302 450.269 1.8061C450.07 2.00917 449.959 2.28221 449.959 2.56658C449.959 2.85096 450.07 3.124 450.269 3.32707C450.467 3.53014 450.738 3.64706 451.021 3.6527H465.333C465.616 3.64706 465.887 3.53014 466.085 3.32707C466.284 3.124 466.395 2.85096 466.395 2.56658C466.395 2.28221 466.284 2.00917 466.085 1.8061C465.887 1.60302 465.616 1.48611 465.333 1.48047Z" fill="#676294"/>
<path d="M465.333 5.55859H451.021C450.738 5.56424 450.467 5.68115 450.269 5.88422C450.07 6.08729 449.959 6.36033 449.959 6.64471C449.959 6.92909 450.07 7.20213 450.269 7.4052C450.467 7.60827 450.738 7.72518 451.021 7.73083H465.333C465.616 7.72518 465.887 7.60827 466.085 7.4052C466.284 7.20213 466.395 6.92909 466.395 6.64471C466.395 6.36033 466.284 6.08729 466.085 5.88422C465.887 5.68115 465.616 5.56424 465.333 5.55859Z" fill="#676294"/>
<path d="M465.333 9.62891H451.021C450.738 9.63455 450.467 9.75145 450.269 9.95453C450.07 10.1576 449.959 10.4306 449.959 10.715C449.959 10.9994 450.07 11.2724 450.269 11.4755C450.467 11.6786 450.738 11.7955 451.021 11.8011H465.333C465.616 11.7955 465.887 11.6786 466.085 11.4755C466.284 11.2724 466.395 10.9994 466.395 10.715C466.395 10.4306 466.284 10.1576 466.085 9.95453C465.887 9.75145 465.616 9.63455 465.333 9.62891Z" fill="#676294"/>
<path d="M402.562 62.1387H170.882C169.74 62.1387 168.646 62.5929 167.838 63.4015C167.03 64.21 166.576 65.3069 166.574 66.451V176.063C166.575 177.208 167.03 178.305 167.837 179.115C168.645 179.924 169.74 180.38 170.882 180.381H402.562C403.703 180.379 404.797 179.923 405.604 179.113C406.41 178.304 406.864 177.207 406.865 176.063V66.451C406.864 65.3077 406.41 64.2115 405.603 63.403C404.797 62.5945 403.703 62.1398 402.562 62.1387Z" fill="#656283"/>
<path d="M341.365 114.947C340.224 114.948 339.131 115.403 338.324 116.212C337.517 117.02 337.064 118.116 337.062 119.26V150.222C337.063 151.366 337.517 152.463 338.323 153.272C339.13 154.081 340.224 154.537 341.365 154.54H406.864V114.947H341.365Z" fill="#477DE9"/>
<path opacity="0.5" d="M516.998 154.538H341.368C340.227 154.536 339.132 154.081 338.325 153.272C337.518 152.463 337.064 151.366 337.062 150.222V119.261C337.064 118.117 337.518 117.02 338.325 116.211C339.132 115.402 340.227 114.947 341.368 114.945H516.998C518.14 114.947 519.234 115.402 520.042 116.211C520.849 117.02 521.303 118.117 521.304 119.261V150.222C521.303 151.366 520.849 152.463 520.042 153.272C519.234 154.081 518.14 154.536 516.998 154.538Z" fill="#477DE9"/>
<path d="M511.556 134.686H385.301C384.75 134.686 384.22 134.467 383.83 134.076C383.44 133.685 383.221 133.154 383.221 132.601C383.221 132.048 383.44 131.518 383.83 131.126C384.22 130.735 384.75 130.516 385.301 130.516H511.556C512.107 130.516 512.637 130.735 513.027 131.126C513.417 131.518 513.636 132.048 513.636 132.601C513.636 133.154 513.417 133.685 513.027 134.076C512.637 134.467 512.107 134.686 511.556 134.686Z" fill="white"/>
<path d="M463.603 142.927H385.301C384.75 142.927 384.22 142.707 383.83 142.316C383.44 141.925 383.221 141.395 383.221 140.841C383.221 140.288 383.44 139.758 383.83 139.367C384.22 138.976 384.75 138.756 385.301 138.756H463.603C464.155 138.756 464.684 138.976 465.074 139.367C465.465 139.758 465.684 140.288 465.684 140.841C465.684 141.395 465.465 141.925 465.074 142.316C464.684 142.707 464.155 142.927 463.603 142.927Z" fill="white"/>
<path d="M132.823 291.88L138.87 291.879L141.747 268.502H132.822L132.823 291.88Z" fill="#FFB6B6"/>
<path d="M131.279 289.902L132.981 289.902L139.626 287.193L143.188 289.902C145.201 289.902 147.131 290.703 148.555 292.129C149.978 293.556 150.777 295.491 150.778 297.508V297.755L131.28 297.756L131.279 289.902Z" fill="#2F2E41"/>
<path d="M78.1836 284.001L83.5959 286.705L96.575 267.068L88.5876 263.078L78.1836 284.001Z" fill="#FFB6B6"/>
<path d="M77.6847 281.539L79.208 282.3L86.3608 282.847L88.343 286.863C90.1443 287.763 91.5156 289.344 92.1545 291.257C92.7933 293.17 92.6479 295.259 91.7502 297.064L91.6402 297.285L74.1895 288.568L77.6847 281.539Z" fill="#2F2E41"/>
<path d="M135.501 185.707L97.0527 186.712L97.7214 205.478C97.7214 205.478 97.0527 210.504 98.39 211.845C99.7274 213.185 100.396 213.185 99.7274 215.531C99.0587 217.876 97.33 240.289 97.33 240.289C97.33 240.289 81.5497 268.255 82.2184 268.925C82.887 269.595 83.5557 268.925 82.887 270.6C82.2184 272.276 81.5497 271.606 82.2184 272.276C82.8107 272.916 83.3687 273.587 83.89 274.287H94.7881C94.7881 274.287 95.3976 270.936 95.3976 270.6C95.3976 270.265 96.0662 268.255 96.0662 267.92C96.0662 267.585 115.107 247.365 115.107 247.365L119.119 213.855L128.814 246.695C128.814 246.695 128.814 275.513 129.483 276.184C130.152 276.854 130.152 276.519 129.817 277.859C129.483 279.199 128.146 278.864 129.149 279.87C130.152 280.875 130.486 279.199 130.152 280.875L129.817 282.55L142.662 282.694C142.662 282.694 144 279.87 143.331 278.864C142.662 277.859 142.702 278.133 143.518 276.488C144.334 274.843 144.668 274.508 144.334 274.173C144 273.838 144 272.055 144 272.055C144 272.055 139.179 206.148 139.179 205.143C139.154 204.625 139.249 204.109 139.457 203.635V202.271L138.176 197.435L135.501 185.707Z" fill="#2F2E41"/>
<path d="M516.246 127.524C513.328 127.524 510.475 126.656 508.049 125.032C505.623 123.407 503.732 121.097 502.615 118.395C501.499 115.693 501.206 112.72 501.776 109.852C502.345 106.983 503.75 104.348 505.813 102.28C507.877 100.212 510.506 98.8039 513.367 98.2334C516.229 97.6628 519.196 97.9556 521.892 99.0748C524.587 100.194 526.892 102.089 528.513 104.521C530.134 106.953 530.999 109.812 530.999 112.736C530.999 116.658 529.445 120.419 526.678 123.193C523.911 125.966 520.159 127.524 516.246 127.524Z" fill="#477DE9"/>
<path d="M522.068 111.278H517.702V106.902C517.702 106.515 517.548 106.144 517.275 105.871C517.002 105.597 516.632 105.443 516.246 105.443C515.86 105.443 515.49 105.597 515.217 105.871C514.944 106.144 514.791 106.515 514.791 106.902V111.278H510.425C510.234 111.278 510.044 111.315 509.867 111.388C509.69 111.461 509.529 111.569 509.394 111.704C509.259 111.84 509.151 112.001 509.078 112.178C509.005 112.355 508.967 112.545 508.967 112.737C508.967 112.929 509.005 113.118 509.078 113.296C509.151 113.473 509.259 113.634 509.394 113.769C509.529 113.905 509.69 114.012 509.867 114.085C510.044 114.158 510.234 114.196 510.425 114.195H514.791V118.571C514.791 118.958 514.944 119.329 515.217 119.603C515.49 119.876 515.86 120.03 516.246 120.03C516.632 120.03 517.002 119.876 517.275 119.603C517.548 119.329 517.702 118.958 517.702 118.571V114.195H522.068C522.454 114.195 522.824 114.042 523.097 113.768C523.37 113.495 523.523 113.124 523.523 112.737C523.523 112.35 523.37 111.979 523.097 111.705C522.824 111.432 522.454 111.278 522.068 111.278Z" fill="white"/>
<path d="M291.086 154.738H235.031C233.888 154.74 232.793 155.195 231.986 156.004C231.178 156.814 230.724 157.911 230.723 159.056V180.382H295.389V159.056C295.388 157.912 294.934 156.815 294.128 156.006C293.321 155.196 292.227 154.741 291.086 154.738Z" fill="#477DE9"/>
<path opacity="0.5" d="M291.084 214.662H235.029C233.887 214.661 232.793 214.206 231.985 213.396C231.178 212.587 230.724 211.49 230.723 210.346V159.054C230.724 157.91 231.178 156.813 231.985 156.004C232.793 155.195 233.887 154.74 235.029 154.738H291.084C292.226 154.74 293.32 155.195 294.128 156.004C294.935 156.813 295.389 157.91 295.39 159.054V210.346C295.389 211.49 294.935 212.587 294.128 213.396C293.32 214.206 292.226 214.661 291.084 214.662Z" fill="#477DE9"/>
<rect x="243" y="161" width="17" height="15" rx="2" fill="white"/>
<path d="M279.474 189.694H246.637C246.085 189.694 245.556 189.475 245.166 189.083C244.776 188.692 244.557 188.162 244.557 187.609C244.557 187.056 244.776 186.525 245.166 186.134C245.556 185.743 246.085 185.523 246.637 185.523H279.474C280.026 185.523 280.555 185.743 280.946 186.134C281.336 186.525 281.555 187.056 281.555 187.609C281.555 188.162 281.336 188.692 280.946 189.083C280.555 189.475 280.026 189.694 279.474 189.694Z" fill="white"/>
<path d="M262.483 197.935H246.637C246.086 197.935 245.556 197.715 245.166 197.324C244.776 196.933 244.557 196.402 244.557 195.849C244.557 195.296 244.776 194.766 245.166 194.374C245.556 193.983 246.086 193.764 246.637 193.764H262.483C263.035 193.764 263.564 193.983 263.954 194.374C264.344 194.766 264.564 195.296 264.564 195.849C264.564 196.402 264.344 196.933 263.954 197.324C263.564 197.715 263.035 197.935 262.483 197.935Z" fill="white"/>
<path d="M233.859 229.715C230.941 229.715 228.089 228.848 225.662 227.223C223.236 225.598 221.345 223.289 220.229 220.587C219.112 217.885 218.82 214.911 219.389 212.043C219.958 209.175 221.363 206.54 223.427 204.472C225.49 202.404 228.119 200.995 230.981 200.425C233.843 199.854 236.809 200.147 239.505 201.266C242.201 202.385 244.505 204.281 246.126 206.713C247.747 209.144 248.613 212.003 248.613 214.928C248.613 218.85 247.058 222.611 244.291 225.384C241.524 228.157 237.772 229.715 233.859 229.715Z" fill="#477DE9"/>
<path d="M239.681 213.469H235.315V209.093C235.315 208.707 235.162 208.336 234.889 208.062C234.616 207.788 234.246 207.635 233.86 207.635C233.474 207.635 233.103 207.788 232.831 208.062C232.558 208.336 232.404 208.707 232.404 209.093V213.469H228.038C227.847 213.469 227.657 213.507 227.48 213.58C227.304 213.653 227.143 213.76 227.007 213.896C226.872 214.031 226.764 214.192 226.691 214.369C226.618 214.546 226.58 214.736 226.58 214.928C226.58 215.12 226.618 215.31 226.691 215.487C226.764 215.664 226.872 215.825 227.007 215.961C227.143 216.096 227.304 216.203 227.48 216.277C227.657 216.35 227.847 216.387 228.038 216.387H232.404V220.763C232.404 221.15 232.558 221.521 232.831 221.794C233.103 222.068 233.474 222.222 233.86 222.222C234.246 222.222 234.616 222.068 234.889 221.794C235.162 221.521 235.315 221.15 235.315 220.763V216.387H239.681C240.067 216.387 240.437 216.233 240.71 215.96C240.983 215.686 241.136 215.315 241.136 214.928C241.136 214.541 240.983 214.17 240.71 213.897C240.437 213.623 240.067 213.469 239.681 213.469Z" fill="white"/>
<path d="M227.03 122.131H170.974C169.832 122.129 168.738 121.674 167.931 120.865C167.123 120.056 166.669 118.959 166.668 117.815V66.5226C166.669 65.3784 167.123 64.2815 167.931 63.4724C168.738 62.6634 169.832 62.2083 170.974 62.207H227.03C228.171 62.2083 229.266 62.6634 230.073 63.4724C230.88 64.2815 231.334 65.3784 231.336 66.5226V117.815C231.334 118.959 230.88 120.056 230.073 120.865C229.266 121.674 228.171 122.129 227.03 122.131Z" fill="#477DE9"/>
<path d="M187.491 90.7995C191.35 90.7995 194.478 87.664 194.478 83.7962C194.478 79.9284 191.35 76.793 187.491 76.793C183.632 76.793 180.504 79.9284 180.504 83.7962C180.504 87.664 183.632 90.7995 187.491 90.7995Z" fill="#477DE9"/>
<path d="M215.422 99.3037H182.585C182.033 99.3037 181.504 99.0839 181.113 98.6929C180.723 98.3018 180.504 97.7713 180.504 97.2182C180.504 96.6652 180.723 96.1347 181.113 95.7436C181.504 95.3525 182.033 95.1328 182.585 95.1328H215.422C215.973 95.1328 216.503 95.3525 216.893 95.7436C217.283 96.1347 217.502 96.6652 217.502 97.2182C217.502 97.7713 217.283 98.3018 216.893 98.6929C216.503 99.0839 215.973 99.3037 215.422 99.3037Z" fill="#477DE9"/>
<path d="M198.43 107.544H182.585C182.033 107.544 181.504 107.324 181.113 106.933C180.723 106.542 180.504 106.012 180.504 105.459C180.504 104.905 180.723 104.375 181.113 103.984C181.504 103.593 182.033 103.373 182.585 103.373H198.43C198.982 103.373 199.511 103.593 199.902 103.984C200.292 104.375 200.511 104.905 200.511 105.459C200.511 106.012 200.292 106.542 199.902 106.933C199.511 107.324 198.982 107.544 198.43 107.544Z" fill="#477DE9"/>
<path opacity="0.5" d="M227.03 122.131H170.974C169.832 122.129 168.738 121.674 167.931 120.865C167.123 120.056 166.669 118.959 166.668 117.815V66.5226C166.669 65.3784 167.123 64.2815 167.931 63.4724C168.738 62.6634 169.832 62.2083 170.974 62.207H227.03C228.171 62.2083 229.266 62.6634 230.073 63.4724C230.88 64.2815 231.334 65.3784 231.336 66.5226V117.815C231.334 118.959 230.88 120.056 230.073 120.865C229.266 121.674 228.171 122.129 227.03 122.131Z" fill="#477DE9"/>
<rect x="180" y="74" width="17" height="15" rx="2" fill="white"/>
<path d="M215.422 99.3037H182.585C182.033 99.3037 181.504 99.0839 181.113 98.6929C180.723 98.3018 180.504 97.7713 180.504 97.2182C180.504 96.6652 180.723 96.1347 181.113 95.7436C181.504 95.3525 182.033 95.1328 182.585 95.1328H215.422C215.973 95.1328 216.503 95.3525 216.893 95.7436C217.283 96.1347 217.502 96.6652 217.502 97.2182C217.502 97.7713 217.283 98.3018 216.893 98.6929C216.503 99.0839 215.973 99.3037 215.422 99.3037Z" fill="white"/>
<path d="M198.43 107.544H182.585C182.033 107.544 181.504 107.324 181.113 106.933C180.723 106.542 180.504 106.012 180.504 105.459C180.504 104.905 180.723 104.375 181.113 103.984C181.504 103.593 182.033 103.373 182.585 103.373H198.43C198.982 103.373 199.511 103.593 199.902 103.984C200.292 104.375 200.511 104.905 200.511 105.459C200.511 106.012 200.292 106.542 199.902 106.933C199.511 107.324 198.982 107.544 198.43 107.544Z" fill="white"/>
<path d="M172.132 73.2741C178.323 73.2741 183.342 68.2437 183.342 62.0384C183.342 55.8331 178.323 50.8027 172.132 50.8027C165.941 50.8027 160.922 55.8331 160.922 62.0384C160.922 68.2437 165.941 73.2741 172.132 73.2741Z" fill="#FF6584"/>
<path d="M169.735 91.7988C170.196 93.0902 170.132 94.5115 169.557 95.7561C168.982 97.0007 167.942 97.9689 166.661 98.452C166.378 98.5581 166.086 98.6388 165.788 98.6932L162.828 116.863L155.883 110.435L159.759 94.1668C159.616 92.796 160.016 91.4236 160.874 90.3463C161.732 89.2691 162.979 88.5736 164.344 88.4102C165.493 88.2782 166.653 88.5417 167.632 89.1575C168.612 89.7733 169.354 90.7047 169.735 91.7988Z" fill="#FFB6B6"/>
<path d="M118.48 132.969C118.48 132.969 123.871 125.831 143.43 126.026L154.532 121.983L157.07 98.6719L165.95 100.791L164.681 129.613L145.652 140.632L120.702 145.719L118.48 132.969Z" fill="#3F3D56"/>
<path d="M115.617 118.097C122.028 118.097 127.226 112.888 127.226 106.462C127.226 100.036 122.028 94.8262 115.617 94.8262C109.205 94.8262 104.008 100.036 104.008 106.462C104.008 112.888 109.205 118.097 115.617 118.097Z" fill="#FFB6B6"/>
<path d="M95.9687 194.687C95.9481 194.687 95.9276 194.684 95.9078 194.678C95.6935 194.618 95.5241 194.571 96.2976 187.868L97.1324 182.569L96.3174 177.89L94.9466 176.516L97.1498 174.308L98.9986 169.045L95.7996 164.293L92.1294 144.863C91.4984 141.51 91.9887 138.042 93.5243 134.997C95.0599 131.952 97.555 129.5 100.623 128.021L104.871 126.777L106.416 123.936C106.85 123.138 107.489 122.471 108.267 122.005C109.045 121.538 109.933 121.288 110.84 121.281L118.619 121.223C119.404 121.217 120.179 121.393 120.885 121.738C121.59 122.083 122.206 122.587 122.685 123.21L125.399 126.747L136.653 130.578L134.787 170.878C135.083 171.126 135.325 171.434 135.497 171.781C135.668 172.128 135.766 172.507 135.784 172.894C135.802 173.281 135.74 173.668 135.601 174.029C135.463 174.391 135.25 174.72 134.978 174.995C134.861 175.113 134.768 175.21 134.711 175.273C134.521 175.543 134.877 177.56 135.317 179.273L135.881 181.895C135.7 182.025 135.548 182.19 135.434 182.382C135.32 182.573 135.247 182.786 135.22 183.008C135.192 183.229 135.211 183.453 135.274 183.667C135.338 183.88 135.445 184.078 135.588 184.248L136.307 185.099C136.449 186.166 136.163 187.246 135.512 188.102C134.861 188.958 133.898 189.521 132.833 189.666C122.548 191.069 96.0225 194.687 95.9687 194.687Z" fill="#3F3D56"/>
<path d="M112.648 117.529C112.599 117.419 112.549 117.309 112.5 117.199C112.519 117.2 112.538 117.203 112.557 117.203L112.648 117.529Z" fill="#2F2E41"/>
<path d="M103.685 95.3555C104.236 94.8343 104.953 94.5238 105.709 94.4784C106.46 94.5027 107.221 95.1822 107.065 95.9187C108.444 93.4717 110.639 91.5897 113.264 90.603C115.89 89.6163 118.778 89.588 121.422 90.523C123.288 91.1828 125.118 92.5027 125.546 94.4386C125.588 94.9469 125.739 95.44 125.989 95.884C126.206 96.1214 126.488 96.29 126.799 96.3691C127.11 96.4481 127.438 96.4342 127.742 96.329L127.76 96.3235C127.864 96.288 127.976 96.2845 128.082 96.3135C128.188 96.3425 128.283 96.4027 128.354 96.4863C128.425 96.5699 128.47 96.673 128.482 96.7823C128.495 96.8917 128.474 97.0022 128.423 97.0996L127.895 98.0864C128.56 98.2351 129.252 98.2203 129.91 98.0434C130.02 98.0147 130.135 98.0206 130.241 98.0603C130.347 98.1 130.438 98.1715 130.502 98.2652C130.566 98.3588 130.599 98.4699 130.597 98.5832C130.596 98.6966 130.559 98.8066 130.492 98.8982C129.615 100.101 128.47 101.082 127.147 101.764C125.825 102.445 124.362 102.807 122.876 102.822C120.766 102.809 118.635 102.081 116.582 102.567C115.788 102.755 115.046 103.119 114.411 103.632C113.775 104.145 113.262 104.794 112.91 105.532C112.557 106.269 112.374 107.077 112.373 107.895C112.372 108.713 112.554 109.52 112.906 110.258C112.275 109.567 111.056 109.731 110.411 110.409C110.114 110.771 109.894 111.192 109.766 111.643C109.637 112.094 109.602 112.567 109.664 113.033C109.836 114.458 110.258 115.842 110.911 117.12C108.417 117.043 106.006 116.2 104.004 114.706C102.003 113.212 100.507 111.139 99.7193 108.765C98.9314 106.392 98.8891 103.834 99.5983 101.435C100.307 99.0373 101.734 96.9151 103.685 95.3555Z" fill="#2F2E41"/>
<path d="M100.492 211.375C99.3817 210.573 98.6308 209.365 98.4009 208.013C98.171 206.661 98.4805 205.273 99.2626 204.147C99.4361 203.899 99.6312 203.666 99.8455 203.453L92.0117 186.801L101.368 188.151L107.373 203.757C108.266 204.805 108.712 206.164 108.614 207.538C108.516 208.913 107.882 210.194 106.849 211.105C105.978 211.866 104.873 212.308 103.718 212.357C102.562 212.406 101.425 212.06 100.492 211.375Z" fill="#FFB6B6"/>
<path d="M98.1198 202.283L85.6541 174.203L85.5293 152.025L89.4587 140.045C89.9918 138.42 90.8446 136.918 91.9666 135.629C93.0887 134.339 94.4572 133.289 95.9913 132.538C97.5254 131.788 99.194 131.354 100.898 131.261C102.603 131.168 104.309 131.419 105.915 131.998L106.001 132.029L106.038 132.114C106.183 132.454 109.479 140.624 99.7028 157.433L97.7354 168.934L104.639 195.297L98.1198 202.283Z" fill="#3F3D56"/>
<rect x="358" y="129" width="17" height="15" rx="2" fill="white"/>
<path d="M581.837 299H2.16296C1.58931 299 1.03918 298.947 0.633548 298.854C0.227914 298.76 0 298.633 0 298.5C0 298.367 0.227914 298.24 0.633548 298.146C1.03918 298.053 1.58931 298 2.16296 298H581.837C582.411 298 582.961 298.053 583.367 298.146C583.772 298.24 584 298.367 584 298.5C584 298.633 583.772 298.76 583.367 298.854C582.961 298.947 582.411 299 581.837 299Z" fill="#CCCCCC"/>
</svg>
