<svg width="661" height="432" viewBox="0 0 661 432" fill="none" xmlns="http://www.w3.org/2000/svg">
<path d="M576.815 429.714C420.117 429.778 187.22 430.125 87.7702 430.277C68.6698 430.307 59.1196 430.321 52.553 425.945C49.6189 423.99 47.3299 421.707 45.3679 418.777C40.977 412.22 40.9693 402.316 40.954 382.507C40.9003 313.199 37.4833 222.217 45.2797 199.183C57.5434 162.949 85.6524 124.949 182.026 95.6463C250.344 74.8738 261.469 10.3426 297.283 2.5286C530.385 -27.7213 608.43 220.208 620.49 384.287V384.287C621.753 401.466 622.384 410.056 618.107 417.142C616.342 420.065 613.672 422.941 610.887 424.916C604.135 429.703 595.028 429.707 576.815 429.714Z" fill="#6EA8FF" fill-opacity="0.07"/>
<g clip-path="url(#clip0_73_6098)">
<path d="M505.3 252.86H132.832C127.839 252.86 123.777 248.796 123.777 243.799V116.566C123.777 111.57 127.839 107.505 132.832 107.505H505.3C510.293 107.505 514.354 111.57 514.354 116.566V243.799C514.354 248.796 510.293 252.86 505.3 252.86ZM132.832 108.586C128.434 108.586 124.857 112.166 124.857 116.566V243.799C124.857 248.2 128.434 251.78 132.832 251.78H505.3C509.697 251.78 513.275 248.2 513.275 243.799V116.566C513.275 112.166 509.697 108.586 505.3 108.586H132.832Z" fill="#3F3D56"/>
<path d="M540.831 404.857H81.498V405.766H540.831V404.857Z" fill="#E6E6E6"/>
<path d="M540.831 358.41H81.498V359.319H540.831V358.41Z" fill="#DBDBDB"/>
<path d="M290.829 257.539C291.159 261.687 293.565 264.879 296.203 264.668C298.841 264.458 300.712 260.925 300.381 256.776C300.272 255.116 299.767 253.507 298.909 252.083L297.29 234.526L289.072 235.462L291.541 252.671C290.919 254.214 290.675 255.883 290.829 257.539Z" fill="#FFB6B6"/>
<path d="M281.013 175.629C281.013 175.629 288.694 171.56 292.589 177.64C296.484 183.721 299.172 249.484 299.172 249.484L288.377 250.638L286.33 204.296L281.013 175.629Z" fill="#DDDDDD"/>
<path d="M265.07 354.978L271.324 354.978L274.299 330.838L265.068 330.839L265.07 354.978Z" fill="#FFB6B6"/>
<path d="M286.497 354.836C286.692 355.164 286.795 356.224 286.795 356.605C286.795 357.778 285.844 358.729 284.672 358.729H265.304C264.504 358.729 263.856 358.081 263.856 357.28V356.473C263.856 356.473 262.898 354.048 264.87 351.059C264.87 351.059 267.322 353.4 270.985 349.734L272.066 347.775L279.886 353.498L284.22 354.032C285.169 354.149 286.009 354.014 286.497 354.836Z" fill="#2F2E41"/>
<path d="M301.262 353.942L307.321 352.393L304.233 328.268L295.29 330.554L301.262 353.942Z" fill="#FFB6B6"/>
<path d="M321.988 348.498C322.258 348.768 322.619 349.768 322.714 350.138C323.004 351.275 322.318 352.432 321.182 352.722L302.417 357.519C301.642 357.717 300.853 357.249 300.655 356.473L300.456 355.692C300.456 355.692 298.928 353.579 300.099 350.195C300.099 350.195 303.054 351.855 305.697 347.396L306.259 345.231L315.251 348.839L319.583 348.283C320.531 348.161 321.312 347.822 321.988 348.498Z" fill="#2F2E41"/>
<path d="M259.896 170.44L259.6 168.286L263.124 159.673L272.808 158.596L274.899 170.927L259.896 170.44Z" fill="#FFB6B6"/>
<path opacity="0.1" d="M259.896 170.44L259.6 168.286L263.124 159.673L272.808 158.596L274.899 170.927L259.896 170.44Z" fill="black"/>
<path d="M248.598 231.272L244.294 243.115L247.522 249.576L263.661 343.246H274.391L272.269 260.342L297.016 343.246H307.636L299.096 287.259L292.712 235.579L288.84 233.185L270.117 222.659L248.598 231.272Z" fill="#2F2E41"/>
<path d="M276.035 239.347L269.579 240.424L260.972 219.967H280.339L276.035 239.347Z" fill="#DDDDDD"/>
<path d="M288.947 233.964L276.035 239.347L271.731 229.657L269.58 240.424L246.984 233.145L250.212 219.967L246.984 176.9L258.379 169.299L259.896 168.287L273.883 169.363L275.11 170.031L283.567 174.747L285.719 210.277L288.947 233.964Z" fill="#2F2E41"/>
<path d="M275.11 170.031L269.042 195.742L258.379 169.299L259.896 168.287L273.883 169.363L275.11 170.031Z" fill="#DDDDDD"/>
<path d="M264.738 168.287L262.586 171.995L264.738 173.231L263.662 195.809L267.966 201.663L272.27 193.01L269.042 173.231L270.118 168.287H264.738Z" fill="#2F2E41"/>
<path d="M267.966 166.133C273.611 166.133 278.187 161.554 278.187 155.905C278.187 150.256 273.611 145.676 267.966 145.676C262.321 145.676 257.744 150.256 257.744 155.905C257.744 161.554 262.321 166.133 267.966 166.133Z" fill="#FFB6B6"/>
<path d="M261.433 156.802L263.641 157.766L264.605 151.979C264.605 151.979 268.461 150.05 271.352 151.015C274.244 151.979 279.063 151.015 279.063 151.015C279.063 151.015 279.063 141.37 272.316 141.37C265.569 141.37 258.822 142.334 258.822 145.228C258.822 148.121 255.93 151.015 255.93 151.015C255.93 151.015 252.075 156.802 255.93 160.66C259.786 164.518 261.714 164.518 261.714 164.518L261.433 156.802Z" fill="#2F2E41"/>
<path d="M241.599 257.236C241.487 261.396 243.541 264.825 246.186 264.896C248.832 264.967 251.066 261.653 251.178 257.492C251.245 255.831 250.914 254.177 250.212 252.67L250.464 235.04L242.194 235.098L242.823 252.472C242.041 253.939 241.621 255.573 241.599 257.236Z" fill="#FFB6B6"/>
<path d="M251.831 174.726C251.831 174.726 244.838 172.573 241.61 179.033C238.382 185.493 242.686 251.17 242.686 251.17H253.543L250.661 204.873L251.831 174.726Z" fill="#DDDDDD"/>
<path d="M520.118 297.083L494.037 289.093C493.46 288.917 492.855 288.852 492.254 288.903L360.072 300.16C358.187 300.321 357.713 302.864 359.414 303.693L363.648 305.758H363.535V404.568H367.525V307.647L380.794 314.117C381.81 314.611 382.943 314.814 384.066 314.7L385.478 314.557V404.568H389.468V314.154L491.705 303.82V404.568H495.694V303.417L512.651 301.703V404.568H516.64V301.3L519.734 300.987C521.905 300.768 522.205 297.722 520.118 297.083Z" fill="#3F3D56"/>
<path d="M398.445 299.769C400.939 299.769 437.844 295.277 437.844 295.277L443.33 302.763L404.929 310.249L398.445 299.769Z" fill="white"/>
<path d="M438.948 400.731L432.536 400.719L429.528 375.966L438.991 375.983L438.948 400.731Z" fill="#A0616A"/>
<path d="M416.981 400.547C416.781 400.883 416.674 401.969 416.673 402.36C416.671 403.563 417.643 404.54 418.845 404.542L438.702 404.576C439.522 404.577 440.187 403.913 440.189 403.093L440.19 402.266C440.19 402.266 441.177 399.781 439.16 396.713C439.16 396.713 436.642 399.108 432.893 395.344L431.789 393.334L423.761 399.187L419.317 399.727C418.344 399.845 417.483 399.705 416.981 400.547Z" fill="#2F2E41"/>
<path d="M473.361 389.22L468.302 393.038L451.177 375.331L458.643 369.695L473.361 389.22Z" fill="#A0616A"/>
<path d="M455.944 402.188C455.986 402.573 456.549 403.492 456.782 403.801C457.497 404.75 458.845 404.939 459.794 404.223L475.459 392.397C476.106 391.909 476.235 390.988 475.747 390.341L475.255 389.688C475.255 389.688 474.551 387.142 471.133 385.929C471.133 385.929 470.577 389.319 465.379 388.59L463.311 387.666L460.475 397.07L457.295 400.148C456.599 400.821 455.837 401.226 455.944 402.188Z" fill="#2F2E41"/>
<path d="M459.961 261.291C459.961 267.208 455.167 272.004 449.255 272.004C443.342 272.004 438.549 267.208 438.549 261.291C438.549 255.375 443.342 250.578 449.255 250.578C455.167 250.578 459.961 255.375 459.961 261.291Z" fill="#A0616A"/>
<path d="M458.952 323.06C458.952 323.06 419.534 320.827 417.303 325.293C415.072 329.758 429.365 391.094 429.365 391.094L442.117 388.42L435.896 345.387C435.896 345.387 468.79 354.104 473.252 343.685C477.714 333.266 476.43 329.386 476.43 329.386L458.952 323.06Z" fill="#2F2E41"/>
<path d="M469.051 315.564C469.051 315.564 430.447 323.846 429.476 328.743C428.505 333.639 458.504 389.007 458.504 389.007L470.095 383.052L452.719 343.199C452.719 343.199 486.745 342.898 488.294 331.669C489.843 320.44 487.579 317.039 487.579 317.039L469.051 315.564Z" fill="#2F2E41"/>
<path d="M473.455 273.569H454.908L442.218 294.407C442.218 294.407 439.243 307.874 442.218 309.327C445.193 310.78 445.193 326.409 445.193 326.409L476.429 329.386C476.429 329.386 480.892 282.5 479.404 278.034C477.917 273.569 473.455 273.569 473.455 273.569Z" fill="#1F78FF"/>
<path d="M444.078 287.337L442.219 309.327L421.305 300.446L416.314 297.934C415.336 296.658 414.068 295.635 412.614 294.951C408.999 293.188 405.162 293.625 404.041 295.926C402.92 298.227 404.941 301.521 408.554 303.283C409.989 304.007 411.577 304.376 413.183 304.361L427.788 312.661L427.805 312.629L427.87 312.744L450.772 322.316L456.041 293.449L444.078 287.337Z" fill="#A0616A"/>
<path d="M441.846 262.778C441.846 262.778 430.69 264.266 435.152 254.591C435.152 254.591 434.472 249.346 437.787 248.992C441.102 248.637 445.565 242.684 445.565 242.684C445.565 242.684 455.795 237.474 461.092 242.684C466.389 247.893 482.007 278.406 482.007 278.406L471.595 289.57C471.595 289.57 465.335 273.103 458.053 275.011C450.771 276.918 444.077 282.605 444.077 282.605C444.077 282.605 436.687 278.904 440.01 275.678C443.333 272.453 441.846 262.778 441.846 262.778Z" fill="#2F2E41"/>
<path d="M456.721 279.15C456.721 279.15 451.515 272.452 447.796 277.662C444.077 282.872 441.103 289.57 441.103 289.57L455.977 294.779L456.721 279.15Z" fill="#1F78FF"/>
<path d="M513.198 403.087L495.916 348.121L495.919 348.121H495.959L495.889 348.031L495.887 348.029L494.656 344.114L494.657 344.114C496.532 342.497 497.809 340.186 498.063 337.526L490.164 294.05C490.707 288.341 486.333 283.35 480.603 283.145L462.779 283.101C457.712 282.921 453.324 286.584 452.585 291.604L452.192 294.269L446.731 331.443C446.531 332.78 446.611 334.098 446.925 335.331L442.995 335.845L441.803 336.004L437.09 336.618L437.075 336.623L436.487 336.698H435.849V352.667H435.889V403.71C435.889 404.039 436.158 404.309 436.487 404.309C436.821 404.309 437.09 404.039 437.09 403.71V352.667H444.082L451.059 403.65C451.104 403.949 451.359 404.169 451.658 404.169C451.683 404.169 451.713 404.169 451.738 404.164C452.067 404.119 452.296 403.815 452.251 403.485L445.299 352.667H478.848C482.179 352.667 485.266 351.61 487.779 349.798L501.081 403.556C501.15 403.828 501.394 404.009 501.662 404.009C501.711 404.009 501.761 404.003 501.811 403.991C502.132 403.909 502.327 403.582 502.245 403.26L488.815 348.982C488.993 348.833 489.172 348.674 489.341 348.51L494.68 348.196L512.052 403.448C512.133 403.704 512.37 403.869 512.625 403.869C512.685 403.869 512.745 403.86 512.805 403.841C513.122 403.741 513.298 403.403 513.198 403.087ZM493.515 344.967C493.56 344.942 493.6 344.912 493.64 344.887L493.768 345.295L493.515 344.967Z" fill="#E6E6E6"/>
<path d="M174.098 309.919L185.728 302.518L190.457 305.372L174.098 324.182V309.919Z" fill="#FFB6B6"/>
<path d="M158.192 281.271C158.192 281.271 150.467 283.09 154.103 293.549C157.738 304.008 169.553 325.834 173.188 324.47C176.824 323.106 177.278 309.464 177.278 309.464C177.278 309.464 176.824 309.919 175.006 308.1C173.188 306.281 173.188 307.112 173.188 305.105C173.188 303.098 171.702 301.61 171.702 301.61L170.007 298.096C170.007 298.096 170.007 281.726 163.191 280.817C156.375 279.907 158.192 281.271 158.192 281.271Z" fill="#E6E6E6"/>
<path d="M194.285 304.883C197.302 301.864 198.237 297.905 196.373 296.04C194.51 294.176 190.554 295.112 187.537 298.131C184.52 301.149 183.585 305.108 185.448 306.973C187.312 308.837 191.268 307.902 194.285 304.883Z" fill="#FFB6B6"/>
<path d="M128.104 341.522L136.04 354.667L182.289 351.929L169.974 336.045L128.104 341.522Z" fill="#D7D7D7"/>
<path d="M141.923 403.001C141.653 403.001 141.418 402.802 141.381 402.528L127.561 301.526C127.52 301.227 127.729 300.95 128.029 300.909C128.328 300.866 128.604 301.078 128.645 301.378L142.465 402.379C142.506 402.679 142.297 402.955 141.997 402.996C141.972 402.999 141.947 403.001 141.923 403.001Z" fill="#D7D7D7"/>
<path d="M128.103 403.129C127.801 403.129 127.556 402.884 127.556 402.582V301.472C127.556 301.169 127.801 300.924 128.103 300.924C128.405 300.924 128.65 301.169 128.65 301.472V402.582C128.65 402.884 128.405 403.129 128.103 403.129Z" fill="#E6E6E6"/>
<path d="M197.477 402.727C197.244 402.727 197.028 402.578 196.955 402.344L164.252 298.33C164.161 298.042 164.321 297.734 164.61 297.643C164.898 297.553 165.205 297.713 165.296 298.001L197.999 402.015C198.09 402.304 197.93 402.611 197.641 402.702C197.587 402.719 197.531 402.727 197.477 402.727Z" fill="#E6E6E6"/>
<path d="M187.488 402.856C187.243 402.856 187.021 402.691 186.958 402.443L164.244 310.644C164.169 310.351 164.346 310.052 164.639 309.978C164.933 309.904 165.23 310.081 165.305 310.374L188.019 402.173C188.093 402.466 187.916 402.764 187.623 402.839C187.578 402.85 187.533 402.856 187.488 402.856Z" fill="#E6E6E6"/>
<path d="M128.104 303.082L166.006 302.499L172.985 342.344H128.651L128.104 303.082Z" fill="#D7D7D7"/>
<path d="M186.35 361.671L176.798 378.5L187.889 380.943L192.513 368.974L186.35 361.671Z" fill="#FFB6B6"/>
<path d="M180.229 375.323C180.229 375.323 179.857 372.579 177.675 373.45C175.493 374.32 169.195 377.557 169.195 377.557C169.195 377.557 185.621 404.265 188.739 403.021C191.856 401.777 188.124 394.227 188.124 394.227L188.948 380.882L180.229 375.323Z" fill="#2F2E41"/>
<path d="M144.105 329.017C144.105 329.017 140.697 344.705 151.149 350.162C161.601 355.619 197.273 342.204 197.273 342.204L180.914 366.733L192.274 371.307C192.274 371.307 218.176 337.202 216.359 331.746C214.541 326.289 202.272 325.834 202.272 325.834L174.552 327.198L167.281 324.925L144.105 329.017Z" fill="#2F2E41"/>
<path d="M172.218 369.141L157.201 381.337L166.643 387.652L175.303 378.187L172.218 369.141Z" fill="#FFB6B6"/>
<path d="M161.553 379.627C161.553 379.627 162.205 376.936 159.856 376.952C157.507 376.969 150.464 377.69 150.464 377.69C150.464 377.69 156.052 408.549 159.408 408.525C162.764 408.501 162.033 400.11 162.033 400.11L167.653 387.98L161.553 379.627Z" fill="#2F2E41"/>
<path d="M144.745 323.343C144.745 323.343 135.865 336.714 143.616 345.603C151.367 354.491 189.472 354.985 189.472 354.985L165.315 371.875L174.233 380.273C174.233 380.273 210.761 357.938 211.053 352.193C211.344 346.449 200.081 341.558 200.081 341.558L173.765 332.735L167.82 327.97L144.745 323.343Z" fill="#2F2E41"/>
<path d="M167.555 292.371C167.555 292.371 158.921 289.188 154.831 289.188C154.44 289.188 154.054 289.233 153.668 289.315C151.05 289.87 148.642 292.121 147.487 293.349C147.038 293.831 146.779 294.154 146.779 294.154C146.779 294.154 146.806 293.84 146.86 293.29C147.128 290.397 148.119 280.907 149.896 274.832C150.532 272.663 151.264 270.931 152.104 270.089C154.063 268.125 154.967 265.77 155.385 264.014C155.74 262.509 155.74 261.45 155.74 261.45L152.427 260.022L151.814 256.011C151.705 256.484 151.2 257.407 149.505 259.176C149.36 259.326 149.201 259.453 149.032 259.563C146.588 261.099 141.603 258.426 138.917 256.743C140.035 252.855 142.062 249.299 145.742 248.717C154.377 247.353 154.377 242.351 159.83 247.808C160.28 248.258 160.734 248.69 161.188 249.108C162.933 252.446 163.57 256.921 163.797 260.031C163.96 262.209 163.919 263.723 163.919 263.723C163.919 263.723 166.192 277.365 169.827 280.093C173.462 282.822 167.555 292.371 167.555 292.371Z" fill="#2F2E41"/>
<path d="M150.741 270.544L144.601 279.556L158.466 283.276V270.544H150.741Z" fill="#FFB6B6"/>
<path opacity="0.1" d="M150.741 270.544L144.601 279.556L158.466 283.276V270.544H150.741Z" fill="black"/>
<path d="M159.328 279.225L146.15 273.768C146.15 273.768 128.427 281.498 129.791 296.504C131.154 311.51 143.878 337.43 143.878 337.43L169.326 326.516L166.599 297.414L159.328 279.225Z" fill="#E9E9E9"/>
<path d="M153.678 274.568C160.099 274.568 165.305 269.359 165.305 262.933C165.305 256.508 160.099 251.299 153.678 251.299C147.257 251.299 142.052 256.508 142.052 262.933C142.052 269.359 147.257 274.568 153.678 274.568Z" fill="#FFB6B6"/>
<path d="M169.372 258.721C167.1 260.995 165.283 263.269 165.283 263.269L164.374 259.631C164.374 259.631 164.165 259.785 163.797 260.031C162.356 261.013 158.489 263.482 155.385 264.014C154.004 264.251 152.777 264.101 151.977 263.269C150.282 261.5 149.778 260.577 149.669 260.104L149.055 264.114L145.742 265.542C145.742 265.542 145.742 270.535 149.378 274.182C149.555 274.359 149.728 274.578 149.896 274.832C151.632 277.451 152.877 283.863 153.667 289.315C154.367 294.163 154.703 298.246 154.703 298.246C154.703 298.246 151.264 293.935 147.487 293.349C147.278 293.317 147.069 293.294 146.86 293.29C146.792 293.28 146.719 293.28 146.651 293.28C142.561 293.28 133.927 296.464 133.927 296.464C133.927 296.464 128.02 286.914 131.655 284.186C135.29 281.458 137.563 267.816 137.563 267.816C137.563 267.816 137.413 261.977 138.917 256.743C140.035 252.855 142.061 249.299 145.742 248.717C154.376 247.353 154.376 242.351 159.829 247.808C160.279 248.258 160.734 248.69 161.188 249.108C166.269 253.783 171.458 256.634 169.372 258.721Z" fill="#2F2E41"/>
<path d="M118.38 319.762H114.062V405.097H118.38V319.762Z" fill="#3F3D56"/>
<path d="M223.088 319.762H218.771V405.097H223.088V319.762Z" fill="#3F3D56"/>
<path d="M195.562 283.576H166.956V312.201H195.562V283.576Z" fill="#1F78FF"/>
<path d="M150.468 314.011L162.099 306.61L166.827 309.464L150.468 328.274V314.011Z" fill="#FFB6B6"/>
<path d="M134.563 285.364C134.563 285.364 126.837 287.182 130.473 297.641C134.108 308.1 145.923 329.927 149.559 328.563C153.194 327.198 153.648 313.557 153.648 313.557C153.648 313.557 153.194 314.011 151.376 312.192C149.559 310.373 149.559 311.204 149.559 309.197C149.559 307.19 148.072 305.703 148.072 305.703L146.378 302.188C146.378 302.188 146.378 285.818 139.561 284.909C132.745 283.999 134.563 285.364 134.563 285.364Z" fill="#D3D3D3"/>
<path d="M170.655 308.975C173.672 305.956 174.607 301.997 172.743 300.133C170.88 298.268 166.924 299.204 163.907 302.223C160.89 305.242 159.955 309.201 161.818 311.065C163.682 312.93 167.638 311.994 170.655 308.975Z" fill="#FFB6B6"/>
<path d="M231.724 316.521H101.108V326.243H231.724V316.521Z" fill="#3F3D56"/>
<path d="M364.429 238.748H345.139C343.61 238.748 342.37 239.988 342.37 241.519V249.48C342.37 251.01 343.61 252.25 345.139 252.25H364.429C365.958 252.25 367.198 251.01 367.198 249.48V241.519C367.198 239.988 365.958 238.748 364.429 238.748Z" fill="#3F3D56"/>
<path d="M404.91 246.709H385.619C384.09 246.709 382.851 247.949 382.851 249.48V249.48C382.851 251.01 384.09 252.25 385.619 252.25H404.91C406.439 252.25 407.678 251.01 407.678 249.48V249.48C407.678 247.949 406.439 246.709 404.91 246.709Z" fill="#1F78FF"/>
</g>
<path d="M1 431L659.986 429.698" stroke="#1F78FF" stroke-opacity="0.38" stroke-width="0.5" stroke-linecap="round"/>
<defs>
<clipPath id="clip0_73_6098">
<rect width="459.333" height="301.019" fill="white" transform="translate(81.498 107.505)"/>
</clipPath>
</defs>
</svg>
