<svg width="211" height="189" viewBox="0 0 211 189" fill="none" xmlns="http://www.w3.org/2000/svg">
<g clip-path="url(#clip0_11_45412)">
<path d="M108.059 0.411301L101.194 2.17832L16.6084 23.9484L9.7428 25.7154C6.41033 26.5771 3.55642 28.7229 1.80718 31.682C0.0579396 34.6412 -0.443774 38.172 0.412108 41.4998L30.1827 156.717C31.0461 160.043 33.1961 162.892 36.161 164.637C39.126 166.383 42.6637 166.884 45.9981 166.03L46.0159 166.025L144.297 140.73L144.314 140.726C147.647 139.864 150.501 137.718 152.25 134.759C153.999 131.8 154.501 128.269 153.645 124.941L123.875 9.72376C123.011 6.39782 120.861 3.54949 117.896 1.80367C114.931 0.0578436 111.394 -0.442898 108.059 0.411301Z" fill="#F2F2F2"/>
<path d="M108.994 4.02447L100.862 6.11738L18.8092 27.2357L10.6775 29.3286C8.30438 29.9422 6.27204 31.4703 5.02635 33.5776C3.78067 35.6848 3.42338 38.1992 4.03288 40.569L33.8035 155.786C34.4183 158.155 35.9494 160.183 38.0608 161.427C40.1722 162.67 42.6915 163.026 45.066 162.418L45.0838 162.413L143.365 137.119L143.382 137.114C145.756 136.5 147.788 134.972 149.034 132.865C150.279 130.758 150.636 128.243 150.027 125.874L120.256 10.6561C119.642 8.28763 118.11 6.25929 115.999 5.01605C113.888 3.77281 111.368 3.4162 108.994 4.02447Z" fill="white"/>
<path d="M102.854 41.3351L53.1358 54.1312C52.5805 54.2741 51.991 54.191 51.4971 53.9002C51.0032 53.6094 50.6453 53.1346 50.5021 52.5804C50.3589 52.0262 50.4422 51.4379 50.7336 50.945C51.0249 50.4521 51.5006 50.0948 52.0559 49.9519L101.774 37.1558C102.329 37.0134 102.918 37.0969 103.411 37.3877C103.905 37.6786 104.263 38.1531 104.406 38.707C104.549 39.2609 104.466 39.8489 104.175 40.3416C103.884 40.8344 103.409 41.1918 102.854 41.3351Z" fill="#F2F2F2"/>
<path d="M113.311 46.1656L54.9561 61.1846C54.4008 61.3276 53.8114 61.2445 53.3174 60.9536C52.8235 60.6628 52.4656 60.1881 52.3224 59.6339C52.1792 59.0797 52.2625 58.4914 52.5539 57.9984C52.8453 57.5055 53.3209 57.1483 53.8762 57.0053L112.231 41.9863C112.786 41.8434 113.376 41.9265 113.87 42.2173C114.363 42.5082 114.721 42.9829 114.865 43.5371C115.008 44.0913 114.925 44.6796 114.633 45.1725C114.342 45.6655 113.866 46.0227 113.311 46.1656Z" fill="#F2F2F2"/>
<path d="M111.022 72.941L61.3038 85.7371C61.0288 85.8079 60.7426 85.8239 60.4614 85.7843C60.1802 85.7447 59.9097 85.6502 59.6651 85.5061C59.4205 85.3621 59.2068 85.1715 59.0361 84.945C58.8653 84.7186 58.741 84.4608 58.6701 84.1864C58.5992 83.912 58.5831 83.6263 58.6228 83.3457C58.6625 83.0651 58.7572 82.795 58.9015 82.5509C59.0458 82.3069 59.2368 82.0935 59.4637 81.9231C59.6906 81.7527 59.9489 81.6286 60.2239 81.5578L109.942 68.7617C110.217 68.691 110.503 68.6749 110.784 68.7146C111.065 68.7542 111.336 68.8487 111.58 68.9927C111.825 69.1367 112.039 69.3274 112.209 69.5538C112.38 69.7803 112.505 70.0381 112.575 70.3125C112.646 70.5869 112.662 70.8726 112.623 71.1532C112.583 71.4338 112.488 71.7039 112.344 71.9479C112.2 72.192 112.009 72.4053 111.782 72.5757C111.555 72.7461 111.297 72.8703 111.022 72.941Z" fill="#F2F2F2"/>
<path d="M121.479 77.7711L63.1241 92.7901C62.8491 92.8609 62.5629 92.8769 62.2817 92.8373C62.0006 92.7976 61.73 92.7031 61.4854 92.5591C61.2409 92.4151 61.0271 92.2244 60.8564 91.998C60.6856 91.7715 60.5613 91.5138 60.4904 91.2393C60.4195 90.9649 60.4034 90.6793 60.4431 90.3986C60.4828 90.118 60.5775 89.848 60.7218 89.6039C60.8661 89.3598 61.0571 89.1465 61.284 88.9761C61.5109 88.8057 61.7692 88.6816 62.0442 88.6108L120.399 73.5918C120.954 73.4489 121.544 73.532 122.037 73.8228C122.531 74.1136 122.889 74.5884 123.033 75.1426C123.176 75.6968 123.092 76.2851 122.801 76.778C122.51 77.271 122.034 77.6282 121.479 77.7711Z" fill="#F2F2F2"/>
<path d="M119.188 104.546L69.4703 117.343C68.9151 117.485 68.326 117.402 67.8324 117.111C67.3388 116.82 66.9812 116.345 66.838 115.791C66.6949 115.238 66.778 114.649 67.0691 114.157C67.3602 113.664 67.8355 113.307 68.3904 113.163L118.108 100.367C118.664 100.224 119.253 100.307 119.747 100.598C120.241 100.889 120.599 101.364 120.742 101.918C120.885 102.472 120.802 103.06 120.511 103.553C120.219 104.046 119.743 104.404 119.188 104.546Z" fill="#F2F2F2"/>
<path d="M129.645 109.377L71.29 124.396C71.0149 124.467 70.7286 124.483 70.4472 124.443C70.1659 124.404 69.8951 124.31 69.6503 124.166C69.4055 124.022 69.1916 123.831 69.0207 123.604C68.8499 123.378 68.7254 123.12 68.6544 122.845C68.5835 122.571 68.5675 122.285 68.6073 122.004C68.6471 121.723 68.7419 121.453 68.8864 121.209C69.0309 120.965 69.2221 120.752 69.4493 120.581C69.6764 120.411 69.9349 120.287 70.2101 120.216L128.565 105.197C129.12 105.054 129.71 105.137 130.203 105.428C130.697 105.719 131.055 106.194 131.198 106.748C131.342 107.302 131.258 107.891 130.967 108.383C130.676 108.876 130.2 109.234 129.645 109.377Z" fill="#F2F2F2"/>
<path d="M44.6477 67.2515L27.053 71.78C26.7868 71.8482 26.5043 71.8082 26.2676 71.6688C26.0308 71.5294 25.8591 71.3019 25.7902 71.0364L21.7514 55.4053C21.683 55.1396 21.7231 54.8577 21.8627 54.6214C22.0024 54.3851 22.2303 54.2138 22.4964 54.145L40.0911 49.6165C40.3573 49.5483 40.6398 49.5883 40.8766 49.7277C41.1133 49.8671 41.285 50.0945 41.3539 50.3601L45.3928 65.9911C45.4611 66.2569 45.4211 66.5388 45.2814 66.7751C45.1417 67.0114 44.9138 67.1827 44.6477 67.2515Z" fill="#E6E6E6"/>
<path d="M52.8157 98.857L35.221 103.385C34.9548 103.454 34.6723 103.414 34.4355 103.274C34.1988 103.135 34.0271 102.907 33.9582 102.642L29.9193 87.0108C29.851 86.7451 29.891 86.4631 30.0307 86.2268C30.1704 85.9906 30.3983 85.8192 30.6644 85.7504L48.2591 81.222C48.5253 81.1538 48.8078 81.1938 49.0445 81.3332C49.2813 81.4726 49.453 81.7 49.5219 81.9656L53.5608 97.5966C53.6291 97.8623 53.589 98.1443 53.4494 98.3806C53.3097 98.6168 53.0818 98.7882 52.8157 98.857Z" fill="#E6E6E6"/>
<path d="M60.9798 130.464L43.3851 134.993C43.1188 135.061 42.8363 135.021 42.5996 134.882C42.3628 134.742 42.1912 134.515 42.1222 134.249L38.0834 118.618C38.015 118.352 38.0551 118.071 38.1948 117.834C38.3344 117.598 38.5623 117.427 38.8284 117.358L56.4231 112.829C56.6894 112.761 56.9719 112.801 57.2086 112.941C57.4454 113.08 57.6171 113.307 57.686 113.573L61.7248 129.204C61.7932 129.47 61.7531 129.752 61.6134 129.988C61.4738 130.224 61.2459 130.396 60.9798 130.464Z" fill="#E6E6E6"/>
<path d="M176.63 29.6191H75.0977C71.6552 29.623 68.3548 30.9896 65.9206 33.419C63.4864 35.8485 62.1171 39.1424 62.1133 42.5781V161.565C62.1171 165.001 63.4864 168.295 65.9206 170.724C68.3548 173.154 71.6552 174.52 75.0977 174.524H176.63C180.073 174.52 183.373 173.154 185.808 170.724C188.242 168.295 189.611 165.001 189.615 161.565V42.5781C189.611 39.1424 188.242 35.8485 185.808 33.419C183.373 30.9896 180.073 29.623 176.63 29.6191Z" fill="#E6E6E6"/>
<path d="M176.631 33.3477H75.0981C72.6466 33.3504 70.2963 34.3236 68.5628 36.0536C66.8294 37.7837 65.8543 40.1293 65.8516 42.576V161.563C65.8543 164.01 66.8294 166.355 68.5628 168.085C70.2963 169.815 72.6466 170.789 75.0981 170.791H176.631C179.083 170.789 181.433 169.815 183.166 168.085C184.9 166.355 185.875 164.01 185.877 161.563V42.576C185.875 40.1294 184.9 37.7837 183.166 36.0537C181.433 34.3236 179.083 33.3504 176.631 33.3477Z" fill="white"/>
<path d="M187.296 189C200.387 189 210.999 178.408 210.999 165.344C210.999 152.279 200.387 141.688 187.296 141.688C174.206 141.688 163.594 152.279 163.594 165.344C163.594 178.408 174.206 189 187.296 189Z" fill="#477DE9"/>
<path d="M198.635 162.259H190.39V154.031C190.39 153.213 190.065 152.428 189.485 151.849C188.905 151.27 188.119 150.945 187.299 150.945C186.479 150.945 185.692 151.27 185.113 151.849C184.533 152.428 184.207 153.213 184.207 154.031V162.259H175.963C175.143 162.259 174.356 162.584 173.777 163.163C173.197 163.741 172.871 164.526 172.871 165.345C172.871 166.163 173.197 166.948 173.777 167.526C174.356 168.105 175.143 168.43 175.963 168.43H184.207V176.658C184.207 177.477 184.533 178.262 185.113 178.84C185.692 179.419 186.479 179.744 187.299 179.744C188.119 179.744 188.905 179.419 189.485 178.84C190.065 178.262 190.39 177.477 190.39 176.658V168.43H198.635C199.455 168.43 200.241 168.105 200.821 167.526C201.401 166.948 201.726 166.163 201.726 165.345C201.726 164.526 201.401 163.741 200.821 163.163C200.241 162.584 199.455 162.259 198.635 162.259Z" fill="white"/>
<path d="M161.349 98.732H110.005C109.72 98.7324 109.439 98.6768 109.176 98.5685C108.914 98.4602 108.675 98.3013 108.474 98.1008C108.273 97.9004 108.113 97.6624 108.005 97.4004C107.896 97.1384 107.84 96.8576 107.84 96.574C107.84 96.2904 107.896 96.0096 108.005 95.7476C108.113 95.4857 108.273 95.2477 108.474 95.0472C108.675 94.8468 108.914 94.6879 109.176 94.5796C109.439 94.4713 109.72 94.4157 110.005 94.416H161.349C161.922 94.4167 162.471 94.6443 162.876 95.0489C163.281 95.4536 163.509 96.0021 163.509 96.574C163.509 97.146 163.281 97.6945 162.876 98.0991C162.471 98.5038 161.922 98.7314 161.349 98.732Z" fill="#E6E6E6"/>
<path d="M170.268 106.015H110.005C109.72 106.016 109.439 105.96 109.176 105.852C108.914 105.743 108.675 105.584 108.474 105.384C108.273 105.184 108.113 104.946 108.005 104.684C107.896 104.422 107.84 104.141 107.84 103.857C107.84 103.574 107.896 103.293 108.005 103.031C108.113 102.769 108.273 102.531 108.474 102.33C108.675 102.13 108.914 101.971 109.176 101.863C109.439 101.754 109.72 101.699 110.005 101.699H170.268C170.842 101.699 171.392 101.927 171.797 102.331C172.203 102.736 172.431 103.285 172.431 103.857C172.431 104.43 172.203 104.978 171.797 105.383C171.392 105.788 170.842 106.015 170.268 106.015Z" fill="#E6E6E6"/>
<path d="M161.349 131.371H110.005C109.72 131.371 109.439 131.315 109.176 131.207C108.914 131.099 108.675 130.94 108.474 130.74C108.273 130.539 108.113 130.301 108.005 130.039C107.896 129.777 107.84 129.496 107.84 129.213C107.84 128.929 107.896 128.648 108.005 128.386C108.113 128.124 108.273 127.886 108.474 127.686C108.675 127.485 108.914 127.327 109.176 127.218C109.439 127.11 109.72 127.054 110.005 127.055H161.349C161.922 127.055 162.472 127.282 162.878 127.687C163.283 128.091 163.511 128.64 163.511 129.213C163.511 129.785 163.283 130.334 162.878 130.739C162.472 131.143 161.922 131.371 161.349 131.371Z" fill="#E6E6E6"/>
<path d="M170.268 138.656H110.005C109.72 138.656 109.439 138.601 109.176 138.492C108.914 138.384 108.675 138.225 108.474 138.025C108.273 137.824 108.113 137.586 108.005 137.324C107.896 137.062 107.84 136.781 107.84 136.498C107.84 136.214 107.896 135.933 108.005 135.671C108.113 135.409 108.273 135.171 108.474 134.971C108.675 134.771 108.914 134.612 109.176 134.503C109.439 134.395 109.72 134.34 110.005 134.34H170.268C170.552 134.34 170.834 134.395 171.096 134.503C171.359 134.612 171.598 134.771 171.799 134.971C172 135.171 172.159 135.409 172.268 135.671C172.377 135.933 172.433 136.214 172.433 136.498C172.433 136.781 172.377 137.062 172.268 137.324C172.159 137.586 172 137.824 171.799 138.025C171.598 138.225 171.359 138.384 171.096 138.492C170.834 138.601 170.552 138.656 170.268 138.656Z" fill="#E6E6E6"/>
<path d="M98.504 109.321H80.3337C80.0588 109.321 79.7953 109.212 79.6009 109.018C79.4065 108.824 79.2972 108.561 79.2969 108.287V92.1441C79.2972 91.8698 79.4065 91.6068 79.6009 91.4128C79.7953 91.2188 80.0588 91.1097 80.3337 91.1094H98.504C98.7789 91.1097 99.0424 91.2188 99.2368 91.4128C99.4312 91.6068 99.5405 91.8698 99.5408 92.1441V108.287C99.5405 108.561 99.4312 108.824 99.2368 109.018C99.0424 109.212 98.7789 109.321 98.504 109.321Z" fill="#E6E6E6"/>
<path d="M98.504 141.962H80.3337C80.0588 141.962 79.7953 141.853 79.6009 141.659C79.4065 141.465 79.2972 141.202 79.2969 140.927V124.785C79.2972 124.51 79.4065 124.247 79.6009 124.053C79.7953 123.859 80.0588 123.75 80.3337 123.75H98.504C98.7789 123.75 99.0424 123.859 99.2368 124.053C99.4312 124.247 99.5405 124.51 99.5408 124.785V140.927C99.5405 141.202 99.4312 141.465 99.2368 141.659C99.0424 141.853 98.7789 141.962 98.504 141.962Z" fill="#E6E6E6"/>
<path d="M161.407 62.3981H123.553C122.979 62.3981 122.429 62.1707 122.024 61.766C121.618 61.3613 121.391 60.8124 121.391 60.24C121.391 59.6677 121.618 59.1188 122.024 58.7141C122.429 58.3094 122.979 58.082 123.553 58.082H161.407C161.981 58.082 162.53 58.3094 162.936 58.7141C163.341 59.1188 163.569 59.6677 163.569 60.24C163.569 60.8124 163.341 61.3613 162.936 61.766C162.53 62.1707 161.981 62.3981 161.407 62.3981Z" fill="#CCCCCC"/>
<path d="M170.326 69.6813H123.553C123.269 69.6813 122.988 69.6254 122.725 69.517C122.463 69.4085 122.225 69.2496 122.024 69.0492C121.823 68.8488 121.664 68.6109 121.555 68.3491C121.447 68.0873 121.391 67.8066 121.391 67.5232C121.391 67.2399 121.447 66.9592 121.555 66.6974C121.664 66.4356 121.823 66.1977 122.024 65.9973C122.225 65.7969 122.463 65.6379 122.725 65.5295C122.988 65.421 123.269 65.3652 123.553 65.3652H170.326C170.9 65.3652 171.45 65.5926 171.855 65.9973C172.261 66.402 172.489 66.9509 172.489 67.5232C172.489 68.0956 172.261 68.6445 171.855 69.0492C171.45 69.4539 170.9 69.6813 170.326 69.6813Z" fill="#CCCCCC"/>
<path d="M115.173 78.5062H80.2751C80.0002 78.5059 79.7367 78.3968 79.5423 78.2028C79.3479 78.0088 79.2386 77.7458 79.2383 77.4714V50.2887C79.2386 50.0143 79.3479 49.7513 79.5423 49.5573C79.7367 49.3633 80.0002 49.2542 80.2751 49.2539H115.173C115.448 49.2542 115.712 49.3633 115.906 49.5573C116.101 49.7513 116.21 50.0143 116.21 50.2887V77.4714C116.21 77.7458 116.101 78.0088 115.906 78.2028C115.712 78.3968 115.448 78.5059 115.173 78.5062Z" fill="#477DE9"/>
</g>
<defs>
<clipPath id="clip0_11_45412">
<rect width="211" height="189" fill="white"/>
</clipPath>
</defs>
</svg>
